<svg width="38" height="37" viewBox="0 0 38 37" fill="none" xmlns="http://www.w3.org/2000/svg">
<path d="M5.9779 13.7063H31.563M5.9779 22.8438H31.563M5.06415 18.275C5.06415 20.075 5.41867 21.8573 6.10748 23.5202C6.79628 25.1831 7.80588 26.6941 9.07863 27.9668C10.3514 29.2396 11.8623 30.2492 13.5253 30.938C15.1882 31.6268 16.9705 31.9813 18.7704 31.9813C20.5704 31.9813 22.3527 31.6268 24.0156 30.938C25.6785 30.2492 27.1895 29.2396 28.4622 27.9668C29.735 26.6941 30.7446 25.1831 31.4334 23.5202C32.1222 21.8573 32.4767 20.075 32.4767 18.275C32.4767 14.6399 31.0327 11.1536 28.4622 8.5832C25.8918 6.01278 22.4056 4.56873 18.7704 4.56873C15.1353 4.56873 11.6491 6.01278 9.07863 8.5832C6.5082 11.1536 5.06415 14.6399 5.06415 18.275Z" stroke="#EB6AAF" stroke-width="1.52292" stroke-linecap="round" stroke-linejoin="round"/>
<path d="M18.009 4.56873C15.4434 8.68002 14.0833 13.4289 14.0833 18.275C14.0833 23.1212 15.4434 27.87 18.009 31.9813M19.532 4.56873C22.0976 8.68002 23.4577 13.4289 23.4577 18.275C23.4577 23.1212 22.0976 27.87 19.532 31.9813" stroke="#EB6AAF" stroke-width="1.52292" stroke-linecap="round" stroke-linejoin="round"/>
</svg>
