<svg width="38" height="37" viewBox="0 0 38 37" fill="none" xmlns="http://www.w3.org/2000/svg">
<path d="M5.97784 13.7063H31.5629M5.97784 22.8438H31.5629M5.06409 18.2751C5.06409 20.075 5.41861 21.8573 6.10742 23.5202C6.79622 25.1832 7.80582 26.6941 9.07857 27.9669C10.3513 29.2396 11.8623 30.2492 13.5252 30.938C15.1881 31.6268 16.9704 31.9814 18.7704 31.9814C20.5703 31.9814 22.3526 31.6268 24.0155 30.938C25.6785 30.2492 27.1894 29.2396 28.4622 27.9669C29.7349 26.6941 30.7445 25.1832 31.4333 23.5202C32.1221 21.8573 32.4767 20.075 32.4767 18.2751C32.4767 14.6399 31.0326 11.1537 28.4622 8.58327C25.8918 6.01284 22.4055 4.56879 18.7704 4.56879C15.1352 4.56879 11.649 6.01284 9.07857 8.58327C6.50814 11.1537 5.06409 14.6399 5.06409 18.2751Z" stroke="#6A77EB" stroke-width="1.52292" stroke-linecap="round" stroke-linejoin="round"/>
<path d="M18.009 4.56879C15.4434 8.68008 14.0832 13.4289 14.0832 18.2751C14.0832 23.1212 15.4434 27.8701 18.009 31.9814M19.5319 4.56879C22.0975 8.68008 23.4577 13.4289 23.4577 18.2751C23.4577 23.1212 22.0975 27.8701 19.5319 31.9814" stroke="#6A77EB" stroke-width="1.52292" stroke-linecap="round" stroke-linejoin="round"/>
</svg>
