<svg width="119" height="101" viewBox="0 0 119 101" fill="none" xmlns="http://www.w3.org/2000/svg">
<path d="M65.553 95.7761L65.545 95.7831C61.9912 98.8914 56.4832 98.8902 52.9306 95.7379L52.9246 95.7326L52.9186 95.7273L52.2677 95.1572L52.2631 95.1532C36.6743 81.5659 24.0058 70.5054 15.2978 60.1068C6.62339 49.7483 2.16615 40.3761 2.51955 30.1952C2.84587 21.3106 7.57683 12.7651 15.2407 7.73831L15.242 7.73742C29.6927 -1.75432 47.6275 2.63644 57.3312 13.5781L59.2016 15.6872L61.072 13.5781C70.7807 2.63079 88.7127 -1.80542 103.156 7.73394L103.163 7.73831C110.827 12.7655 115.558 21.3121 115.883 30.1976L115.884 30.1996C116.265 40.3767 111.811 49.7467 103.127 60.1215C94.4504 70.4878 81.8436 81.5223 66.3511 95.0824L66.1448 95.2629L66.1361 95.2705L65.553 95.7761Z" stroke="#EB6AAF" stroke-width="5"/>
</svg>
