<svg width="37" height="37" viewBox="0 0 37 37" fill="none" xmlns="http://www.w3.org/2000/svg">
<path d="M27.4616 20.4231L27.462 20.4228C27.958 20.0257 28.5455 19.759 29.171 19.6473C29.7966 19.5356 30.4401 19.5824 31.0429 19.7833L32.168 20.1583L23.6276 29.9203C23.6276 29.9204 23.6275 29.9205 23.6275 29.9205C23.2701 30.3288 22.8295 30.6559 22.3354 30.88C21.8411 31.1041 21.3047 31.22 20.762 31.2199H20.7618H6.0824C5.47655 31.2199 4.89551 30.9792 4.4671 30.5508C4.0387 30.1224 3.79802 29.5414 3.79802 28.9355V19.798C3.79802 19.596 3.87825 19.4024 4.02105 19.2596C4.16385 19.1168 4.35753 19.0365 4.55948 19.0365L16.6362 19.0365L16.6367 19.0365C17.0124 19.0363 17.3823 19.129 17.7135 19.3064C18.0446 19.4839 18.3267 19.7405 18.5346 20.0534L18.5353 20.0544L19.8873 22.0824L13.697 22.0824H12.9355V22.8438V24.3668V25.1282H13.697H21.3116H21.5787L21.7872 24.9614L27.4616 20.4231ZM28.7725 10.7243L28.7661 10.7309L28.7598 10.7378L22.8346 17.1527L16.9094 10.7363L16.9028 10.7291L16.896 10.7222C16.3447 10.155 15.9997 9.36362 15.9997 8.48422C15.9997 7.60572 16.3441 6.8165 16.8971 6.24511L16.8992 6.24297C17.1758 5.95485 17.5078 5.72551 17.8752 5.56868C18.2426 5.41185 18.6379 5.33075 19.0373 5.33025L19.0367 5.33025L19.0354 5.33025L19.0334 5.33024L19.0311 5.33022C19.0305 5.33021 19.0317 5.33022 19.0344 5.33031C19.04 5.33048 19.0523 5.33096 19.0707 5.33219C19.1077 5.33466 19.1693 5.34014 19.2522 5.35223C19.4181 5.37643 19.6679 5.42692 19.9744 5.5321C20.5842 5.7414 21.4277 6.17028 22.2879 7.05736L22.8345 7.62106L23.3812 7.05736C24.2414 6.17028 25.0849 5.7414 25.6947 5.5321C26.0011 5.42692 26.251 5.37643 26.4168 5.35223C26.4997 5.34014 26.5614 5.33466 26.5983 5.33219C26.6168 5.33096 26.629 5.33048 26.6346 5.33031L26.6364 5.33026C27.0343 5.33133 27.428 5.41248 27.7938 5.56887C28.1612 5.72587 28.493 5.95548 28.7693 6.24391L28.7725 6.24721C29.3247 6.81649 29.6694 7.60679 29.6694 8.48574C29.6694 9.36469 29.3247 10.155 28.7725 10.7243Z" stroke="#6A77EB" stroke-width="1.52292"/>
</svg>
