<svg width="37" height="37" viewBox="0 0 37 37" fill="none" xmlns="http://www.w3.org/2000/svg">
<path d="M15.2292 20.821H14.7292V21.321V28.9356C14.7292 29.497 14.2678 29.9585 13.7063 29.9585H9.13753C8.57607 29.9585 8.11461 29.497 8.11461 28.9356V18.2751V17.7751H7.61461H5.02565C4.79088 17.7751 4.67767 17.4806 4.85389 17.3251L4.85391 17.3251L4.85771 17.3217L17.5881 5.8552C17.5883 5.85504 17.5885 5.85488 17.5886 5.85472C17.9774 5.50741 18.5728 5.50741 18.9615 5.85472C18.9617 5.85488 18.9618 5.85504 18.962 5.8552L31.6924 17.3217L31.6923 17.3218L31.7016 17.3298C31.8669 17.4714 31.7811 17.7751 31.5245 17.7751H28.9355H28.4355V18.2751V28.9356C28.4355 29.497 27.974 29.9585 27.4126 29.9585H22.8438C22.2824 29.9585 21.8209 29.497 21.8209 28.9356V21.321V20.821H21.3209H15.2292Z" stroke="#6A77EB"/>
</svg>
