<svg width="38" height="37" viewBox="0 0 38 37" fill="none" xmlns="http://www.w3.org/2000/svg">
<path d="M27.1374 23.6053V23.9207L27.3605 24.1437L29.325 26.1083C29.8023 26.5855 29.4627 27.4126 28.7822 27.4126H8.72532C8.06103 27.4126 7.70895 26.597 8.19771 26.1083L10.1623 24.1437L10.3853 23.9207V23.6053V15.9907C10.3853 11.5656 12.7035 8.04242 16.6525 7.10675L17.2384 6.96793V6.36581V5.33022C17.2384 4.48674 17.9179 3.8073 18.7614 3.8073C19.6049 3.8073 20.2843 4.48674 20.2843 5.33022V6.36581V6.96745L20.8696 7.10661C24.8045 8.04218 27.1374 11.5815 27.1374 15.9907V23.6053ZM20.914 30.4584C20.5981 31.3427 19.7495 31.9813 18.7614 31.9813C18.1555 31.9813 17.5745 31.7407 17.1461 31.3123C16.9029 31.069 16.7201 30.7766 16.6076 30.4584H20.914Z" stroke="#6A77EB" stroke-width="1.52292"/>
</svg>
