<svg width="57" height="70" viewBox="0 0 57 70" fill="none" xmlns="http://www.w3.org/2000/svg">
<path d="M28.0294 2.8722e-05C24.3061 -0.174601 20.5873 0.430113 17.1111 1.77546C13.6349 3.12081 10.4779 5.17715 7.84222 7.81284C5.20652 10.4485 3.15018 13.6055 1.80483 17.0817C0.459486 20.5579 -0.145227 24.2767 0.0294019 28C0.0294019 36.82 7.0294 45.5 10.5294 49C14.0294 52.5 28.0294 70 28.0294 70C28.0294 70 42.0294 52.5 45.5294 49C49.0294 45.5 56.0294 36.82 56.0294 28C56.204 24.2767 55.5993 20.5579 54.254 17.0817C52.9086 13.6055 50.8523 10.4485 48.2166 7.81284C45.5809 5.17715 42.4239 3.12081 38.9477 1.77546C35.4715 0.430113 31.7528 -0.174601 28.0294 2.8722e-05ZM28.0294 39.375C25.7796 39.375 23.5804 38.7079 21.7098 37.458C19.8392 36.2081 18.3812 34.4316 17.5203 32.3531C16.6593 30.2745 16.4341 27.9874 16.873 25.7809C17.3119 23.5743 18.3952 21.5475 19.9861 19.9567C21.5769 18.3659 23.6037 17.2825 25.8102 16.8436C28.0168 16.4047 30.3039 16.63 32.3824 17.4909C34.4609 18.3518 36.2375 19.8098 37.4874 21.6804C38.7373 23.551 39.4044 25.7503 39.4044 28C39.4044 29.4938 39.1102 30.973 38.5385 32.3531C37.9669 33.7331 37.129 34.9871 36.0727 36.0434C35.0165 37.0996 33.7625 37.9375 32.3824 38.5092C31.0023 39.0808 29.5232 39.375 28.0294 39.375Z" fill="#EB6AAF"/>
<path d="M27.5295 47.8104L24.6899 45.2254C14.6045 36.08 7.94612 30.0288 7.94612 22.6458C7.94612 16.5946 12.6853 11.875 18.717 11.875C22.1245 11.875 25.3949 13.4612 27.5295 15.9483C29.664 13.4612 32.9345 11.875 36.342 11.875C42.3736 11.875 47.1128 16.5946 47.1128 22.6458C47.1128 30.0288 40.4545 36.08 30.369 45.2254L27.5295 47.8104Z" fill="#FAFAFA"/>
</svg>
