<svg width="30" height="30" viewBox="0 0 30 30" fill="none" xmlns="http://www.w3.org/2000/svg">
<path d="M12.9062 5.39625C13.4387 3.20125 16.5613 3.20125 17.0938 5.39625C17.1736 5.726 17.3303 6.03222 17.5509 6.29C17.7715 6.54778 18.0499 6.74982 18.3633 6.87968C18.6768 7.00955 19.0165 7.06356 19.3547 7.03734C19.693 7.01111 20.0203 6.90538 20.31 6.72875C22.2387 5.55375 24.4475 7.76125 23.2725 9.69125C23.0961 9.98082 22.9906 10.3079 22.9644 10.646C22.9382 10.984 22.9922 11.3235 23.1219 11.6367C23.2516 11.95 23.4534 12.2282 23.7109 12.4488C23.9684 12.6694 24.2743 12.8261 24.6038 12.9062C26.7988 13.4387 26.7988 16.5613 24.6038 17.0938C24.274 17.1736 23.9678 17.3303 23.71 17.5509C23.4522 17.7715 23.2502 18.0499 23.1203 18.3633C22.9905 18.6768 22.9364 19.0165 22.9627 19.3547C22.9889 19.693 23.0946 20.0203 23.2713 20.31C24.4463 22.2387 22.2387 24.4475 20.3087 23.2725C20.0192 23.0961 19.6921 22.9906 19.354 22.9644C19.016 22.9382 18.6765 22.9922 18.3633 23.1219C18.05 23.2516 17.7718 23.4534 17.5512 23.7109C17.3306 23.9684 17.1739 24.2743 17.0938 24.6038C16.5613 26.7988 13.4387 26.7988 12.9062 24.6038C12.8264 24.274 12.6697 23.9678 12.4491 23.71C12.2285 23.4522 11.9501 23.2502 11.6367 23.1203C11.3232 22.9905 10.9835 22.9364 10.6453 22.9627C10.307 22.9889 9.97969 23.0946 9.69 23.2713C7.76125 24.4463 5.5525 22.2387 6.7275 20.3087C6.90388 20.0192 7.00944 19.6921 7.0356 19.354C7.06177 19.016 7.0078 18.6765 6.87809 18.3633C6.74838 18.05 6.54658 17.7718 6.28909 17.5512C6.03161 17.3306 5.7257 17.1739 5.39625 17.0938C3.20125 16.5613 3.20125 13.4387 5.39625 12.9062C5.726 12.8264 6.03222 12.6697 6.29 12.4491C6.54778 12.2285 6.74982 11.9501 6.87968 11.6367C7.00955 11.3232 7.06356 10.9835 7.03734 10.6453C7.01111 10.307 6.90538 9.97969 6.72875 9.69C5.55375 7.76125 7.76125 5.5525 9.69125 6.7275C10.9412 7.4875 12.5612 6.815 12.9062 5.39625Z" stroke="#444444" stroke-width="2" stroke-linecap="round" stroke-linejoin="round"/>
<path d="M11.25 15C11.25 15.9946 11.6451 16.9484 12.3483 17.6517C13.0516 18.3549 14.0054 18.75 15 18.75C15.9946 18.75 16.9484 18.3549 17.6517 17.6517C18.3549 16.9484 18.75 15.9946 18.75 15C18.75 14.0054 18.3549 13.0516 17.6517 12.3483C16.9484 11.6451 15.9946 11.25 15 11.25C14.0054 11.25 13.0516 11.6451 12.3483 12.3483C11.6451 13.0516 11.25 14.0054 11.25 15Z" stroke="#444444" stroke-width="2" stroke-linecap="round" stroke-linejoin="round"/>
</svg>
