<svg width="28" height="20" viewBox="0 0 28 20" fill="none" xmlns="http://www.w3.org/2000/svg">
<path d="M1.22683 10.9509C1.04525 10.6634 0.954456 10.5196 0.903632 10.2979C0.865456 10.1313 0.865456 9.86866 0.903632 9.70211C0.954456 9.48037 1.04525 9.33661 1.22683 9.04909C2.72737 6.67312 7.19387 0.666664 14.0005 0.666664C20.8072 0.666664 25.2737 6.67312 26.7742 9.04909C26.9558 9.33661 27.0466 9.48037 27.0974 9.70211C27.1356 9.86866 27.1356 10.1313 27.0974 10.2979C27.0466 10.5196 26.9558 10.6634 26.7742 10.9509C25.2737 13.3269 20.8072 19.3333 14.0005 19.3333C7.19387 19.3333 2.72737 13.3269 1.22683 10.9509Z" stroke="#FAFAFA" stroke-linecap="round" stroke-linejoin="round"/>
<path d="M14.0005 14C16.2097 14 18.0005 12.2091 18.0005 10C18.0005 7.79086 16.2097 6 14.0005 6C11.7914 6 10.0005 7.79086 10.0005 10C10.0005 12.2091 11.7914 14 14.0005 14Z" stroke="#FAFAFA" stroke-linecap="round" stroke-linejoin="round"/>
</svg>
